<?xml version="1.0" encoding="iso-8859-1"?>
<!-- Generator: Adobe Illustrator 19.0.0, SVG Export Plug-In . SVG Version: 6.00 Build 0)  -->
<svg version="1.1" id="Capa_1" xmlns="http://www.w3.org/2000/svg" xmlns:xlink="http://www.w3.org/1999/xlink" x="0px" y="0px"
	 viewBox="0 0 512 512" style="enable-background:new 0 0 512 512;" xml:space="preserve">
<path style="fill:#46738C;" d="M512,256c0,141.385-114.615,256-256,256S0,397.385,0,256S114.615,0,256,0S512,114.615,512,256z"/>
<path style="fill:#F2C230;" d="M393,5v340c0,2.761-2.239,5-5,5H106c-2.761,0-5-2.239-5-5V5c0-2.761,2.239-5,5-5h282
	C390.761,0,393,2.239,393,5z"/>
<path style="fill:#FFF573;" d="M413,30.003v350c0,2.761-2.239,5-5,5H86c-2.761,0-5-2.239-5-5v-350c0-2.761,2.239-5,5-5h322
	C410.761,25.003,413,27.242,413,30.003z"/>
<path style="fill:#FFFF91;" d="M423,55v290c0,2.761-2.239,5-5,5H76c-2.761,0-5-2.239-5-5V55c0-2.761,2.239-5,5-5h342
	C420.761,50,423,52.239,423,55z"/>
<path style="fill:#FFF573;" d="M391,115v51.111c0,2.761-2.239,5-5,5h-99c-2.761,0-5-2.239-5-5V115c0-2.761,2.239-5,5-5h99
	C388.761,110,391,112.239,391,115z M386,70h-99c-2.761,0-5,2.239-5,5v21.111c0,2.761,2.239,5,5,5h99c2.761,0,5-2.239,5-5V75
	C391,72.239,388.761,70,386,70z M266,178.889H107c-2.761,0-5,2.239-5,5V205c0,2.761,2.239,5,5,5h159c2.761,0,5-2.239,5-5v-21.111
	C271,181.127,268.761,178.889,266,178.889z M266,220H107c-2.761,0-5,2.239-5,5v100c0,2.761,2.239,5,5,5h159c2.761,0,5-2.239,5-5V225
	C271,222.239,268.761,220,266,220z M266,70H107c-2.761,0-5,2.239-5,5v90c0,2.761,2.239,5,5,5h159c2.761,0,5-2.239,5-5V75
	C271,72.239,268.761,70,266,70z"/>
<path style="fill:#E6FAFF;" d="M436,390H186c-2.761,0-5-2.239-5-5V135c0-2.761,2.239-5,5-5h250c2.761,0,5,2.239,5,5v250
	C441,387.761,438.761,390,436,390z"/>
<path style="fill:#B4EBFF;" d="M395,176v168H227V176H395z"/>
<path style="fill:#46A5CD;" d="M395,280v32H227v-32H395z"/>
<path style="fill:#64A54B;" d="M282.041,262.728c2.504-3.443,7.397-4.051,10.668-1.326l28.667,23.889V320h-80.987L282.041,262.728z"
	/>
<path style="fill:#78BE5A;" d="M336.946,231.224c2.979-4.096,8.8-4.819,12.69-1.577L395,267.449V320H272.382L336.946,231.224z"/>
<path style="fill:#FFF573;" d="M291,204c0,24.301-19.699,44-44,44s-44-19.699-44-44s19.699-44,44-44S291,179.699,291,204z"/>
<path style="fill:#FFE13C;" d="M267,204c0,11.046-8.954,20-20,20c-11.046,0-20-8.954-20-20s8.954-20,20-20
	C258.046,184,267,192.954,267,204z"/>
<path style="fill:#D29650;" d="M470,396.518C424.235,466.074,345.487,512,256,512c-90.798,0-170.55-47.274-216-118.548V308
	c0-5.523,4.477-10,10-10h410c5.523,0,10,4.477,10,10V396.518z"/>
<path style="fill:#B9783D;" d="M50,298h30c-5.523,0-10,4.477-10,10v52v33.452v38.428c-11.166-11.804-21.225-24.666-30-38.428V308
	C40,302.477,44.477,298,50,298z M312,338H200c-5.523,0-10,4.477-10,10v20c0,5.523,4.477,10,10,10h112c5.523,0,10-4.477,10-10v-20
	C322,342.477,317.523,338,312,338z"/>
<path style="fill:#82CD64;" d="M393.652,471.875H365c-2.761,0-5-2.239-5-5v-33.75c0-2.761,2.239-5,5-5h80.499
	C430.261,444.891,412.826,459.624,393.652,471.875z"/>
<path style="fill:#FFFF91;" d="M375,471.875h-90c-2.761,0-5-2.239-5-5v-33.75c0-2.761,2.239-5,5-5h90c2.761,0,5,2.239,5,5v33.75
	C380,469.636,377.761,471.875,375,471.875z"/>
<path style="fill:#F2C230;" d="M366.25,442.625v2.25c0,1.104-0.895,2-2,2h-71c-1.104,0-2-0.896-2-2v-2.25c0-1.104,0.896-2,2-2h71
	C365.355,440.625,366.25,441.521,366.25,442.625z M333,453.125h-39.75c-1.104,0-2,0.896-2,2v2.25c0,1.104,0.896,2,2,2H333
	c1.105,0,2-0.896,2-2v-2.25C335,454.021,334.105,453.125,333,453.125z"/>
<g>
</g>
<g>
</g>
<g>
</g>
<g>
</g>
<g>
</g>
<g>
</g>
<g>
</g>
<g>
</g>
<g>
</g>
<g>
</g>
<g>
</g>
<g>
</g>
<g>
</g>
<g>
</g>
<g>
</g>
</svg>
