<svg enable-background="new 0 0 24 24" height="512" viewBox="0 0 24 24" width="512" xmlns="http://www.w3.org/2000/svg"><g fill="#42a5f5"><path d="m15.098 11.634-1.098-.634 1.098-.634c.478-.276.642-.888.366-1.366-.277-.479-.891-.643-1.366-.366l-1.098.634v-1.268c0-.552-.447-1-1-1s-1 .448-1 1v1.268l-1.098-.634c-.477-.277-1.089-.113-1.366.366-.276.478-.112 1.09.366 1.366l1.098.634-1.098.634c-.478.276-.642.888-.366 1.366.186.321.521.5.867.5.17 0 .342-.043.499-.134l1.098-.634v1.268c0 .552.447 1 1 1s1-.448 1-1v-1.268l1.098.634c.157.091.329.134.499.134.346 0 .682-.179.867-.5.276-.478.112-1.09-.366-1.366z"/><path d="m6.695 11.634-1.096-.634 1.097-.634c.478-.276.642-.888.366-1.366-.277-.479-.89-.643-1.366-.366l-1.098.634v-1.268c0-.552-.447-1-1-1s-1 .448-1 1v1.268l-1.098-.634c-.479-.277-1.09-.113-1.366.366-.276.478-.112 1.09.366 1.366l1.098.634-1.098.634c-.479.276-.643.888-.366 1.366.186.321.522.5.867.5.17 0 .342-.043.499-.134l1.098-.634v1.268c0 .552.447 1 1 1s1-.448 1-1v-1.268l1.098.634c.157.091.328.134.498.134.346 0 .682-.179.867-.5.277-.478.113-1.09-.366-1.366z"/><path d="m23.5 11.634-1.098-.634 1.098-.634c.479-.276.643-.888.366-1.366-.277-.479-.89-.643-1.366-.366l-1.098.634v-1.268c0-.552-.447-1-1-1s-1 .448-1 1v1.268l-1.098-.634c-.477-.277-1.089-.113-1.366.366-.276.478-.112 1.09.366 1.366l1.097.634-1.097.634c-.479.276-.643.888-.366 1.366.186.321.522.5.867.5.17 0 .342-.043.499-.134l1.098-.634v1.268c0 .552.447 1 1 1s1-.448 1-1v-1.268l1.098.634c.157.091.329.134.499.134.346 0 .682-.179.867-.5.277-.478.113-1.09-.366-1.366z"/></g><g fill="#607d8b"><path d="m6 19h-5c-.553 0-1-.448-1-1s.447-1 1-1h5c.553 0 1 .448 1 1s-.447 1-1 1z"/><path d="m14.5 19h-5c-.553 0-1-.448-1-1s.447-1 1-1h5c.553 0 1 .448 1 1s-.447 1-1 1z"/><path d="m23 19h-5c-.553 0-1-.448-1-1s.447-1 1-1h5c.553 0 1 .448 1 1s-.447 1-1 1z"/></g><path d="m3.598 7c-.553 0-1 .448-1 1v1.268l-1.098-.634c-.158-.091-.33-.135-.499-.135-.346 0-.681.18-.867.501-.276.478-.112 1.09.366 1.366l1.098.634-1.098.634c-.479.276-.643.888-.366 1.366.186.321.522.5.867.5.17 0 .342-.043.499-.134l1.098-.634v1.268c0 .552.447 1 1 1z" fill="#2196f3"/><path d="m12 7c-.553 0-1 .448-1 1v1.268l-1.098-.634c-.157-.091-.329-.135-.499-.135-.346 0-.682.18-.867.501-.276.478-.112 1.09.366 1.366l1.098.634-1.098.634c-.478.276-.642.888-.366 1.366.186.321.521.5.867.5.17 0 .342-.043.499-.134l1.098-.634v1.268c0 .552.447 1 1 1 .033 0 .066-.002.098-.005v-7.99c-.032-.003-.065-.005-.098-.005z" fill="#2196f3"/><path d="m20.402 7c-.553 0-1 .448-1 1v1.268l-1.098-.634c-.157-.091-.329-.135-.499-.135-.346 0-.682.18-.867.501-.276.478-.112 1.09.366 1.366l1.097.634-1.097.634c-.479.276-.643.888-.366 1.366.186.321.522.5.867.5.17 0 .342-.043.499-.134l1.098-.634v1.268c0 .552.447 1 1 1z" fill="#2196f3"/></svg>