<svg id="Capa_1" enable-background="new 0 0 512 512" height="512" viewBox="0 0 512 512" width="512" xmlns="http://www.w3.org/2000/svg"><g><path d="m512 481.88v15.707c0 7.954-6.433 14.413-14.354 14.413h-146.034c-7.931 0-14.354-6.459-14.354-14.413v-15.707c0-42.397 34.221-76.769 76.443-76.769h21.845c42.223 0 76.454 34.372 76.454 76.769z" fill="#7ed8f6"/><ellipse cx="424.629" cy="353.526" fill="#ffbfab" rx="51.372" ry="51.584"/><path d="m343.661 179.928v15.707c0 7.964-6.423 14.413-14.354 14.413h-146.035c-7.931 0-14.354-6.449-14.354-14.413v-15.707c0-42.397 34.231-76.769 76.453-76.769h21.835c42.223-.001 76.455 34.372 76.455 76.769z" fill="#59c36a"/><path d="m307.661 51.574c0 28.495-23.004 51.584-51.372 51.584s-51.372-23.089-51.372-51.584c.001-28.485 23.005-51.574 51.373-51.574s51.371 23.089 51.371 51.574z" fill="#ffbfab"/><path d="m174.742 481.88v15.707c0 7.954-6.423 14.413-14.354 14.413h-146.034c-7.931 0-14.354-6.459-14.354-14.413v-15.707c0-42.397 34.231-76.769 76.453-76.769h21.845c42.223 0 76.444 34.372 76.444 76.769z" fill="#ff4d4d"/><ellipse cx="87.371" cy="353.526" fill="#ffbfab" rx="51.372" ry="51.584"/><g><path d="m326.171 393.767c-22.345 7.372-45.848 11.143-69.881 11.234h-.819c-23.463 0-46.467-3.531-68.382-10.491-7.891-2.507-12.266-10.953-9.769-18.876 2.497-7.924 10.908-12.317 18.799-9.809 18.989 6.028 38.966 9.087 59.353 9.087.27 0 .549 0 .819-.01 20.846-.07 41.203-3.34 60.531-9.719 7.861-2.598 16.332 1.705 18.909 9.599 2.586 7.892-1.699 16.397-9.56 18.985z" fill="#dfe7f4"/></g><g><path d="m67.218 250.513c-.891 0-1.792-.08-2.7-.246-8.141-1.488-13.54-9.321-12.058-17.496 4.259-23.498 12.302-46.293 23.905-67.75 11.196-20.706 25.264-39.326 41.811-55.343 5.958-5.766 15.443-5.591 21.186.391 5.743 5.983 5.568 15.507-.389 21.274-14.338 13.877-26.542 30.039-36.273 48.036-10.084 18.649-17.068 38.426-20.757 58.78-1.318 7.263-7.624 12.354-14.725 12.354z" fill="#dfe7f4"/></g><g><path d="m445.361 250.513c-7.101 0-13.407-5.089-14.724-12.354-3.689-20.354-10.673-40.131-20.757-58.78-9.732-17.997-21.936-34.159-36.273-48.036-5.958-5.766-6.132-15.291-.389-21.274 5.743-5.982 15.228-6.158 21.186-.391 16.547 16.017 30.615 34.637 41.811 55.343 11.603 21.458 19.646 44.252 23.905 67.75 1.482 8.175-3.917 16.008-12.058 17.496-.908.165-1.811.246-2.701.246z" fill="#c7cfe1"/></g><path d="m307.661 51.574c0 28.495-23.004 51.584-51.372 51.584v-103.158c28.369 0 51.372 23.089 51.372 51.574z" fill="#f89580"/><path d="m343.661 179.928v15.707c0 7.964-6.423 14.413-14.354 14.413h-73.017v-106.89h10.918c42.221 0 76.453 34.373 76.453 76.77z" fill="#00a66c"/><path d="m326.171 393.767c-22.345 7.372-45.848 11.143-69.881 11.234v-30.1c20.846-.07 41.203-3.34 60.531-9.719 7.861-2.598 16.332 1.705 18.909 9.599 2.587 7.893-1.698 16.398-9.559 18.986z" fill="#c7cfe1"/><path d="m138.743 353.526c0 28.485-23.004 51.584-51.372 51.584v-103.168c28.368 0 51.372 23.099 51.372 51.584z" fill="#f89580"/><path d="m174.742 481.88v15.707c0 7.954-6.423 14.413-14.354 14.413h-73.017v-106.889h10.928c42.222 0 76.443 34.372 76.443 76.769z" fill="#cd0000"/><path d="m512 481.88v15.707c0 7.954-6.433 14.413-14.354 14.413h-73.017v-106.889h10.918c42.222 0 76.453 34.372 76.453 76.769z" fill="#6aa9ff"/><path d="m476.001 353.526c0 28.485-23.004 51.584-51.372 51.584v-103.168c28.368 0 51.372 23.099 51.372 51.584z" fill="#f89580"/></g></svg>