<svg enable-background="new 0 0 24 24" height="512" viewBox="0 0 24 24" width="512" xmlns="http://www.w3.org/2000/svg"><circle cx="9" cy="6" fill="#607d8b" r="5"/><path d="m18 17.75v3.5c0 .41-.34.75-.75.75h-16.5c-.41 0-.75-.34-.75-.75v-3.5c0-2.62 2.13-4.75 4.75-4.75h8.5c2.62 0 4.75 2.13 4.75 4.75z" fill="#607d8b"/><path d="m23.761 9.45-3.5-3.25c-.142-.131-.324-.199-.511-.199-.495 0-.75.422-.75.749v2.25h-4c-.553 0-1 .448-1 1s.447 1 1 1h4v2.25c0 .416.338.75.75.75.186 0 .369-.069.511-.2l3.5-3.25c.152-.142.239-.342.239-.55s-.087-.408-.239-.55z" fill="#42a5f5"/><path d="m24 10h-10c0 .552.447 1 1 1h4v2.25c0 .416.338.75.75.75.186 0 .369-.069.511-.2l3.5-3.25c.152-.142.239-.341.239-.55z" fill="#2196f3"/><g fill="#546d79"><path d="m9 13h-4.25c-2.619 0-4.75 2.131-4.75 4.75v3.5c0 .414.336.75.75.75h8.25z"/><path d="m9 1c-2.757 0-5 2.243-5 5s2.243 5 5 5z"/></g></svg>