<svg height="512pt" viewBox="0 0 512 512.001" width="512pt" xmlns="http://www.w3.org/2000/svg"><path d="m512 256c0 141.386719-114.613281 256-256 256-141.382812 0-256-114.613281-256-256s114.617188-256 256-256c141.386719 0 256 114.613281 256 256zm0 0" fill="#4a7aff"/><path d="m512 256c0-8.417969-.417969-16.738281-1.210938-24.949219l-143.042968-143.042969-11.855469 37.460938-55.128906-55.128906-156.503907 353.652344 86.792969 86.796874c8.210938.792969 16.53125 1.210938 24.949219 1.210938 141.386719 0 256-114.613281 256-256zm0 0" fill="#0053bf"/><path d="m144.257812 88.007812h223.488282v335.984376h-223.488282zm0 0" fill="#fff"/><path d="m255.59375 88.007812h112.152344v335.984376h-112.152344zm0 0" fill="#dce1eb"/><path d="m326.914062 208.515625c0 39.164063-31.75 70.914063-70.914062 70.914063s-70.914062-31.75-70.914062-70.914063 31.75-70.914063 70.914062-70.914063 70.914062 31.75 70.914062 70.914063zm0 0" fill="#555a66"/><path d="m256 137.601562c-.136719 0-.269531.007813-.40625.007813v141.8125c.136719 0 .269531.007813.40625.007813 39.164062 0 70.914062-31.75 70.914062-70.914063s-31.75-70.914063-70.914062-70.914063zm0 0" fill="#333940"/><path d="m286.804688 193.679688c0 17.011718-13.792969 30.804687-30.804688 30.804687s-30.804688-13.792969-30.804688-30.804687c0-17.011719 13.792969-30.804688 30.804688-30.804688s30.804688 13.792969 30.804688 30.804688zm0 0" fill="#ffbeaa"/><path d="m256 162.875c-.136719 0-.269531.011719-.40625.011719v61.585937c.136719.003906.269531.011719.40625.011719 17.011719 0 30.804688-13.792969 30.804688-30.804687 0-17.011719-13.792969-30.804688-30.804688-30.804688zm0 0" fill="#e09380"/><path d="m207.019531 259.796875c12.730469 12.164063 29.984375 19.632813 48.980469 19.632813 19 0 36.25-7.46875 48.984375-19.632813-7.800781-19.410156-26.785156-33.121094-48.984375-33.121094-22.199219-.003906-41.179688 13.710938-48.980469 33.121094zm0 0" fill="#ffce00"/><path d="m304.984375 259.796875c-7.800781-19.410156-26.785156-33.125-48.984375-33.125-.136719 0-.269531.007813-.40625.007813v52.742187c.136719 0 .269531.007813.40625.007813 19 0 36.25-7.46875 48.984375-19.632813zm0 0" fill="#ffb600"/><path d="m144.257812 308.808594h223.488282v115.183594h-223.488282zm0 0" fill="#ffce00"/><path d="m255.59375 308.808594h112.152344v115.183594h-112.152344zm0 0" fill="#ffb600"/><path d="m211.238281 70.339844h89.523438v36h-89.523438zm0 0" fill="#ffce00"/><path d="m255.59375 70.339844h45.167969v36h-45.167969zm0 0" fill="#ffb600"/></svg>