<?xml version="1.0" encoding="iso-8859-1"?>
<!-- Generator: Adobe Illustrator 19.0.0, SVG Export Plug-In . SVG Version: 6.00 Build 0)  -->
<svg version="1.1" id="Capa_1" xmlns="http://www.w3.org/2000/svg" xmlns:xlink="http://www.w3.org/1999/xlink" x="0px" y="0px"
	 viewBox="0 0 511.993 511.993" style="enable-background:new 0 0 511.993 511.993;" xml:space="preserve">
<linearGradient id="SVGID_1_" gradientUnits="userSpaceOnUse" x1="69.654" y1="448.2119" x2="416.1364" y2="101.7296" gradientTransform="matrix(1.0449 0 0 -1.0449 2.1993 543.3086)">
	<stop  offset="0" style="stop-color:#84CAFF"/>
	<stop  offset="1" style="stop-color:#00A6FF"/>
</linearGradient>
<circle style="fill:url(#SVGID_1_);" cx="255.996" cy="255.996" r="255.996"/>
<linearGradient id="SVGID_2_" gradientUnits="userSpaceOnUse" x1="165.8952" y1="382.3092" x2="350.1752" y2="382.3092" gradientTransform="matrix(1.0449 0 0 -1.0449 2.1993 543.3086)">
	<stop  offset="0" style="stop-color:#5B5A5F"/>
	<stop  offset="1" style="stop-color:#000000"/>
</linearGradient>
<path style="fill:url(#SVGID_2_);" d="M350.28,228.821h-34.719v-75.682c0-32.842-26.719-59.56-59.56-59.56
	s-59.561,26.719-59.561,59.56v75.682H161.72v-75.682c0-51.986,42.294-94.28,94.28-94.28s94.281,42.294,94.281,94.28V228.821z"/>
<linearGradient id="SVGID_3_" gradientUnits="userSpaceOnUse" x1="165.8952" y1="216.8417" x2="350.1752" y2="216.8417" gradientTransform="matrix(1.0449 0 0 -1.0449 2.1993 543.3086)">
	<stop  offset="0" style="stop-color:#FF764C"/>
	<stop  offset="1" style="stop-color:#ED2400"/>
</linearGradient>
<path style="fill:url(#SVGID_3_);" d="M320.046,427.355H191.953c-35.093,0-63.807-28.713-63.807-63.807v-126.76
	c0-16.871,13.804-30.675,30.675-30.675h194.357c16.871,0,30.675,13.804,30.675,30.675v126.76
	C383.853,398.642,355.14,427.355,320.046,427.355z"/>
<linearGradient id="SVGID_4_" gradientUnits="userSpaceOnUse" x1="165.8952" y1="216.8423" x2="350.1752" y2="216.8423" gradientTransform="matrix(1.0449 0 0 -1.0449 2.1993 543.3086)">
	<stop  offset="0" style="stop-color:#5B5A5F"/>
	<stop  offset="1" style="stop-color:#000000"/>
</linearGradient>
<path style="fill:url(#SVGID_4_);" d="M292.881,295.075c0-20.369-16.512-36.881-36.881-36.881s-36.881,16.512-36.881,36.881
	c0,14.513,8.404,27.032,20.592,33.052v30.859c0,8.959,7.33,16.289,16.289,16.289c8.959,0,16.289-7.33,16.289-16.289v-30.859
	C284.478,322.107,292.881,309.588,292.881,295.075z"/>
<g>
</g>
<g>
</g>
<g>
</g>
<g>
</g>
<g>
</g>
<g>
</g>
<g>
</g>
<g>
</g>
<g>
</g>
<g>
</g>
<g>
</g>
<g>
</g>
<g>
</g>
<g>
</g>
<g>
</g>
</svg>
