<svg height="512" viewBox="0 0 128 128" width="512" xmlns="http://www.w3.org/2000/svg"><g id="Circle_Grid" data-name="Circle Grid"><circle cx="64" cy="64" fill="#2cbfae" r="64"/></g><g id="icon"><path d="m107 63.012a15.38 15.38 0 0 1 -15.384 15.388l-59.26-.321a11.35 11.35 0 0 1 -.409-22.692 15.894 15.894 0 0 1 29.114-12.687 12.771 12.771 0 0 1 24.539 4.957c0 .418-.019.827-.058 1.236.117-.058.234-.107.35-.156a15.372 15.372 0 0 1 21.108 14.275z" fill="#eeefee"/><path d="m78.604 73.403h-7.71v20.797h-13.788v-20.797h-7.71l14.601-20.328z" fill="#575b6d"/></g></svg>